<?xml version="1.0" encoding="utf-8"?>
<!-- Generator: Adobe Illustrator 26.0.2, SVG Export Plug-In . SVG Version: 6.00 Build 0)  -->
<svg version="1.0" id="Layer_1" xmlns="http://www.w3.org/2000/svg" xmlns:xlink="http://www.w3.org/1999/xlink" x="0px" y="0px"
	 viewBox="0 0 155 55" style="enable-background:new 0 0 155 55;" xml:space="preserve">
<style type="text/css">
	.st0{fill:#F58220;}
	.st1{fill:#30A64E;}
	.st2{fill:#F37021;}
	.st3{fill:#46B150;}
	.st4{fill:#1F994F;}
	.st5{enable-background:new    ;}
	.st6{fill:none;stroke:#F7941E;stroke-width:0.5736;stroke-miterlimit:10;}
</style>
<path class="st0" d="M41.4,4.3l-31.9,33c0,0-5.5,5.6,1,11.1c4.9,4.2,9.7,1.1,12-3.4L42,5.3C42,5.3,43.7,2,41.4,4.3"/>
<path class="st1" d="M18.4,26.5L7,38c-1.1,1.1-2.7,1.3-3.2-0.8C3.6,34.9,1.3,8.2,1.1,5C1,4.3,1.7,3.8,2.3,4.9
	c0.7,1.5,8.2,18.6,8.2,18.6s1.5,2.9,3.3,2.7c1.7-0.2,3.3-0.7,3.9-1C18.3,25,19.5,25.4,18.4,26.5"/>
<path class="st2" d="M10.3,48.3c0.1,0.1,0.1,0.1,0.2,0.2c4.3,3.7,9.4,1.7,11.5-2.7l1.5-3.1L42,5.3c0,0,0.6-1.1,0.6-1.6L10.3,48.3z"
	/>
<path class="st3" d="M17.7,25.2c-0.6,0.2-2.1,0.8-3.9,1c-1.7,0.2-3.3-2.7-3.3-2.7S3,6.4,2.3,4.9C2,4.2,1.7,4.1,1.5,4.2l4.8,25.2
	c0,0,0.4,4.2,3.4,2.1c2.1-1.5,6.6-4.7,8.9-6.3C18.4,25.1,18,25.1,17.7,25.2"/>
<path class="st4" d="M10.5,23.4c0,0-0.9-2.1-2.1-5l1.2,7.1c0,0,0.3,4.2,3.4,2.2c0.8-0.5,1.8-1.2,3.1-2c-0.6,0.2-1.3,0.3-2.1,0.4
	C12,26.3,10.5,23.4,10.5,23.4"/>
<g class="st5">
	<path class="st2" d="M55.4,45.7l6.5-16.7h2.3l6.5,16.7h-2.4l-1.7-4.5h-7.1l-1.7,4.5H55.4z M60.1,39.5h5.9C65,36.8,64,34,63,31.4
		C62,34.1,61,36.8,60.1,39.5z"/>
	<path class="st2" d="M76.1,45.7L71.2,34h2.3c0.3,0.7,0.7,1.7,1.2,3c0.5,1.3,1,2.5,1.4,3.5c0.4,1.1,0.8,2.1,1.2,3
		c0.3-1,0.7-2,1.1-3.1c0.4-1.1,0.9-2.2,1.4-3.5c0.5-1.3,0.9-2.3,1.2-3H83l-4.9,11.7H76.1z"/>
	<path class="st2" d="M85.1,45.7V34h2.1v11.7H85.1z M85.1,31v-2h2.1v2H85.1z"/>
	<path class="st2" d="M95.8,46c-0.9,0-1.7-0.2-2.4-0.5s-1.3-0.8-1.8-1.3c-0.5-0.6-0.8-1.2-1.1-1.9c-0.2-0.7-0.4-1.5-0.4-2.4
		c0-1.1,0.2-2.2,0.7-3.1c0.4-0.9,1.1-1.7,2-2.2c0.9-0.6,1.8-0.8,3-0.8c0.8,0,1.6,0.2,2.3,0.6c0.7,0.4,1.2,0.9,1.6,1.6V34h2.1v11.7
		h-2.1v-2c-0.3,0.7-0.8,1.3-1.5,1.7C97.5,45.8,96.7,46,95.8,46z M96.1,44.3c1.2,0,2.1-0.4,2.7-1.2s0.9-1.9,0.9-3.3
		c0-1.3-0.3-2.3-0.9-3.2c-0.6-0.8-1.5-1.2-2.7-1.2c-1.2,0-2.2,0.4-2.8,1.2c-0.6,0.8-1,1.9-1,3.2c0,1.3,0.3,2.4,1,3.2
		S94.9,44.3,96.1,44.3z"/>
	<path class="st2" d="M111.7,45.7h-1c-1.7,0-2.8-0.3-3.4-0.9c-0.6-0.6-0.9-1.6-0.9-3.2v-6.3h-2.3V34h2.3v-3l2.1-0.6V34h3.2v1.4h-3.2
		v6.4c0,0.4,0,0.8,0.1,1c0.1,0.3,0.1,0.5,0.3,0.7c0.1,0.2,0.3,0.3,0.6,0.4s0.6,0.1,0.9,0.2c0.3,0,0.8,0.1,1.4,0.1V45.7z"/>
	<path class="st2" d="M114.8,45.7V34h2.1v11.7H114.8z M114.8,31v-2h2.1v2H114.8z"/>
	<path class="st2" d="M126,46c-1.9,0-3.4-0.6-4.5-1.7c-1.1-1.1-1.6-2.6-1.6-4.4c0-1.8,0.5-3.3,1.6-4.5c1.1-1.1,2.6-1.7,4.5-1.7
		c1.9,0,3.4,0.6,4.4,1.7c1.1,1.1,1.6,2.6,1.6,4.5c0,1.8-0.5,3.3-1.6,4.4C129.4,45.4,127.9,46,126,46z M126,44.3
		c1.2,0,2.2-0.4,2.8-1.2c0.7-0.8,1-1.9,1-3.2c0-1.4-0.3-2.4-1-3.2c-0.7-0.8-1.6-1.2-2.8-1.2c-1.2,0-2.2,0.4-2.8,1.2
		c-0.7,0.8-1,1.9-1,3.2c0,1.3,0.3,2.4,1,3.2C123.8,43.9,124.8,44.3,126,44.3z"/>
	<path class="st2" d="M135.2,45.7v-8.5c0-0.5,0-1,0-1.6c0-0.5,0-1-0.1-1.2l0-0.4h2.2l0,1.8c0.4-0.7,1-1.2,1.7-1.6s1.5-0.6,2.3-0.6
		c1.5,0,2.6,0.4,3.3,1.3s1.1,2.3,1.1,4.1v6.6h-2.1v-6.6c0-1.3-0.2-2.2-0.6-2.8s-1.1-0.9-2-0.9c-0.9,0-1.7,0.3-2.4,0.9
		c-0.7,0.6-1.1,1.3-1.2,2.1v7.4H135.2z"/>
</g>
<line class="st6" x1="47.4" y1="10.4" x2="47.4" y2="46.2"/>
</svg>
