<?xml version="1.0" encoding="utf-8"?>
<svg xmlns="http://www.w3.org/2000/svg" xmlns:xlink="http://www.w3.org/1999/xlink" viewBox="0 0 240 60" role="img" aria-label="Visskan Aviation logo (stacked)">
  <style>
    .st0{fill:#F58220;}
    .st1{fill:#30A64E;}
    .st2{fill:#F37021;}
    .st3{fill:#46B150;}
    .st4{fill:#1F994F;}
    .st6{fill:none;stroke:#F7941E;stroke-width:0.5736;stroke-miterlimit:10;}
    .brand-text{fill:#F37021;font-weight:700;letter-spacing:0.2px;}
  </style>

  <!-- Left emblem (reused from original) -->
  <path class="st0" d="M41.4,4.3l-31.9,33c0,0-5.5,5.6,1,11.1c4.9,4.2,9.7,1.1,12-3.4L42,5.3C42,5.3,43.7,2,41.4,4.3"/>
  <path class="st1" d="M18.4,26.5L7,38c-1.1,1.1-2.7,1.3-3.2-0.8C3.6,34.9,1.3,8.2,1.1,5C1,4.3,1.7,3.8,2.3,4.9
    c0.7,1.5,8.2,18.6,8.2,18.6s1.5,2.9,3.3,2.7c1.7-0.2,3.3-0.7,3.9-1C18.3,25,19.5,25.4,18.4,26.5"/>
  <path class="st2" d="M10.3,48.3c0.1,0.1,0.1,0.1,0.2,0.2c4.3,3.7,9.4,1.7,11.5-2.7l1.5-3.1L42,5.3c0,0,0.6-1.1,0.6-1.6L10.3,48.3z"/>
  <path class="st3" d="M17.7,25.2c-0.6,0.2-2.1,0.8-3.9,1c-1.7,0.2-3.3-2.7-3.3-2.7S3,6.4,2.3,4.9C2,4.2,1.7,4.1,1.5,4.2l4.8,25.2
    c0,0,0.4,4.2,3.4,2.1c2.1-1.5,6.6-4.7,8.9-6.3C18.4,25.1,18,25.1,17.7,25.2"/>
  <path class="st4" d="M10.5,23.4c0,0-0.9-2.1-2.1-5l1.2,7.1c0,0,0.3,4.2,3.4,2.2c0.8-0.5,1.8-1.2,3.1-2c-0.6,0.2-1.3,0.3-2.1,0.4
    C12,26.3,10.5,23.4,10.5,23.4"/>

  <!-- Separator line -->
  <line class="st6" x1="47.4" y1="10.4" x2="47.4" y2="46.2"/>

  <!-- Stacked text -->
  <g>
    <!-- Note: external web font may not apply inside standalone SVG when used as <img>. We'll fall back gracefully. -->
    <text x="60" y="22" class="brand-text" font-family="Poppins, Arial, Helvetica, sans-serif" font-size="14">Visskan</text>
    <text x="60" y="40" class="brand-text" font-family="Poppins, Arial, Helvetica, sans-serif" font-size="16">Aviation</text>
  </g>
</svg>
